<svg width="100%" height="100%" viewBox="0 0 511 129" version="1.1" xmlns="http://www.w3.org/2000/svg" xmlns:xlink="http://www.w3.org/1999/xlink" xml:space="preserve" style="fill-rule:evenodd;clip-rule:evenodd;stroke-linejoin:round;stroke-miterlimit:2;"><g><g><path d="M287.394,43.922l-7.81,0c-0.401,0 -0.802,0.201 -1.002,0.601l-8.612,25.034l-10.815,-25.034c-0.2,-0.4 -0.6,-0.601 -0.801,-0.601l-5.207,0c-0.4,0 -0.801,0.201 -0.801,0.601l-10.414,25.034l-9.012,-25.034c-0.201,-0.4 -0.601,-0.601 -1.002,-0.601l-7.811,0c-0.4,0 -0.6,0.201 -0.801,0.401c-0.2,0.2 -0.2,0.601 -0.2,1.001l14.22,36.45c0.2,0.401 0.6,0.601 1.001,0.601l6.208,-0c0.401,-0 0.802,-0.2 0.802,-0.601l10.414,-25.034l10.614,25.034c0.201,0.401 0.601,0.601 0.801,0.601l6.209,-0c0.401,-0 0.801,-0.2 1.001,-0.601l14.02,-36.45c0.2,-0.2 -0,-0.601 -0.201,-0.801c-0.2,-0.4 -0.4,-0.601 -0.801,-0.601Z" style="fill:#333;fill-rule:nonzero;"/><path d="M346.075,82.175l-7.811,-0c-0.401,-0 -0.801,-0.201 -1.001,-0.601l-8.612,-25.034l-10.815,25.034c-0.2,0.4 -0.601,0.601 -0.801,0.601l-5.207,-0c-0.401,-0 -0.801,-0.201 -0.801,-0.601l-10.415,-25.034l-9.012,25.034c-0.2,0.4 -0.601,0.601 -1.001,0.601l-8.011,-0c-0.401,-0 -0.601,-0.201 -0.801,-0.401c-0.201,-0.2 -0.201,-0.601 -0.201,-1.001l14.22,-36.45c0.2,-0.401 0.601,-0.601 1.001,-0.601l6.209,-0c0.4,-0 0.801,0.2 0.801,0.601l10.414,25.034l10.615,-25.034c0.2,-0.401 0.6,-0.601 0.801,-0.601l6.208,-0c0.401,-0 0.801,0.2 1.002,0.601l14.019,36.45c0.2,0.2 -0,0.601 -0.2,0.801c-0,0.601 -0.401,0.601 -0.601,0.601Z" style="fill:#333;fill-rule:nonzero;"/><path d="M166.028,46.926c-1.602,-1.402 -3.605,-2.403 -5.608,-3.004c-2.003,-0.601 -4.206,-1.001 -6.609,-1.001c-3.004,-0 -5.808,0.601 -8.412,1.602c-1.602,0.601 -2.803,1.602 -4.005,2.604l-0,-2.203c-0,-0.601 -0.401,-1.002 -1.001,-1.002l-7.411,0c-0.6,0 -1.001,0.401 -1.001,1.002l0,36.45c0,0.6 0.401,1.001 1.001,1.001l7.411,-0c0.6,-0 1.001,-0.401 1.001,-1.001l-0,-20.228c-0,-1.402 0.2,-2.804 0.801,-4.206c0.601,-1.202 1.202,-2.403 2.203,-3.204c1.001,-0.801 2.003,-1.602 3.204,-2.003c1.202,-0.401 2.804,-0.801 4.407,-0.801c2.803,-0 5.207,0.801 7.009,2.603c1.803,1.603 2.804,4.206 2.804,7.611l-0,20.228c-0,0.6 0.401,1.001 1.001,1.001l7.411,0c0.6,0 1.001,-0.401 1.001,-1.001l-0,-22.031c-0,-2.803 -0.401,-5.207 -1.402,-7.209c-0.801,-2.204 -2.203,-3.806 -3.805,-5.208Z" style="fill:#333;fill-rule:nonzero;"/><path d="M215.095,48.128c-1.802,-1.602 -4.206,-3.004 -6.809,-3.805c-2.604,-0.801 -5.408,-1.402 -8.412,-1.402c-3.204,-0 -6.208,0.4 -9.012,1.402c-2.604,1.001 -5.007,2.403 -7.01,4.206c-2.003,1.802 -3.404,4.005 -4.606,6.408c-1.001,2.404 -1.602,5.007 -1.602,8.011c-0,2.604 0.4,5.007 1.201,7.411c0.801,2.403 2.203,4.606 4.206,6.408c1.803,1.803 4.406,3.405 7.21,4.607c3.004,1.201 6.409,1.802 10.414,1.802c3.805,0 7.41,-0.601 10.615,-1.602c3.204,-1.001 5.808,-2.203 7.811,-3.605c0.4,-0.2 0.6,-0.801 0.2,-1.402l-3.205,-5.007c-0.2,-0.4 -0.801,-0.601 -1.401,-0.2c-1.803,1.202 -4.006,2.203 -6.61,2.804c-5.006,1.402 -9.813,1.402 -13.218,0.2c-1.602,-0.601 -3.004,-1.202 -4.005,-2.203c-1.002,-0.801 -2.003,-1.802 -2.604,-3.004c-0.4,-0.801 -0.801,-1.602 -1.001,-2.604l32.044,0c0.4,0 1.001,-0.4 1.001,-0.801l0.2,-1.402l0,-2.002c0,-3.005 -0.6,-5.808 -1.602,-8.212c-0.4,-2.203 -1.802,-4.206 -3.805,-6.008Zm-15.021,2.604c3.205,-0 5.808,0.801 8.011,2.603c1.803,1.402 3.005,3.405 3.405,5.808l-23.432,0c0.2,-1.001 0.601,-1.802 1.202,-2.603c0.801,-1.202 1.602,-2.203 2.603,-3.005c1.002,-0.801 2.203,-1.401 3.605,-2.002c1.402,-0.601 3.004,-0.801 4.606,-0.801Z" style="fill:#333;fill-rule:nonzero;"/><path d="M385.729,48.128c-1.802,-1.602 -4.206,-3.004 -6.809,-3.805c-2.604,-0.801 -5.408,-1.402 -8.412,-1.402c-3.204,-0 -6.208,0.4 -9.012,1.402c-2.604,1.001 -5.007,2.403 -7.01,4.206c-2.002,1.802 -3.404,4.005 -4.606,6.408c-1.001,2.404 -1.602,5.007 -1.602,8.011c-0,2.604 0.4,5.007 1.201,7.411c0.801,2.403 2.203,4.606 4.206,6.408c1.803,1.803 4.406,3.405 7.21,4.607c3.004,1.201 6.409,1.802 10.414,1.802c3.806,0 7.411,-0.601 10.615,-1.602c3.204,-1.001 5.808,-2.203 7.811,-3.605c0.4,-0.2 0.6,-0.801 0.2,-1.402l-3.205,-5.007c-0.2,-0.4 -0.801,-0.601 -1.401,-0.2c-1.803,1.202 -4.006,2.203 -6.609,2.804c-5.007,1.402 -9.814,1.402 -13.219,0.2c-1.602,-0.601 -3.004,-1.202 -4.005,-2.203c-1.001,-0.801 -2.003,-1.802 -2.604,-3.004c-0.4,-0.801 -0.801,-1.602 -1.001,-2.604l32.044,0c0.4,0 1.001,-0.4 1.001,-0.801l0.201,-1.402l-0,-2.002c-0,-3.005 -0.601,-5.808 -1.603,-8.212c-0.4,-2.203 -1.802,-4.206 -3.805,-6.008Zm-15.02,2.604c3.204,-0 5.807,0.801 8.011,2.603c1.802,1.402 3.004,3.405 3.404,5.808l-23.432,0c0.2,-1.001 0.601,-1.802 1.202,-2.603c0.801,-1.202 1.602,-2.203 2.603,-3.005c1.002,-0.801 2.203,-1.401 3.605,-2.002c1.402,-0.601 3.004,-0.801 4.607,-0.801Z" style="fill:#333;fill-rule:nonzero;"/><path d="M509.299,43.922l-7.21,0c-0.601,0 -1.002,0.401 -1.002,1.002l0,3.004c-1.602,-1.202 -3.204,-2.404 -5.007,-3.205c-2.603,-1.201 -5.407,-1.802 -8.611,-1.802c-3.205,-0 -6.009,0.4 -8.612,1.402c-2.604,1.001 -5.007,2.403 -7.01,4.005c-2.002,1.803 -3.605,3.806 -4.606,6.209c-1.001,2.403 -1.602,5.007 -1.602,8.011c-0,2.804 0.601,5.607 1.602,8.011c1.001,2.403 2.604,4.606 4.606,6.409c2.003,1.802 4.206,3.204 7.01,4.205c2.603,1.002 5.608,1.603 8.612,1.603c3.204,-0 6.008,-0.601 8.611,-1.603c1.803,-0.801 3.605,-1.802 5.007,-3.204l0,2.804c0,0.601 0.401,1.001 1.002,1.001l7.21,0c0.6,0 1.001,-0.4 1.001,-1.001l-0,-35.849c-0,-0.601 -0.401,-1.002 -1.001,-1.002Zm-26.437,30.242c-1.602,-0.601 -3.004,-1.602 -4.205,-2.604c-1.202,-1.001 -2.003,-2.403 -2.604,-3.805c-0.601,-1.402 -1.001,-3.004 -1.001,-4.606c-0,-1.603 0.4,-3.205 1.001,-4.607c0.601,-1.402 1.402,-2.804 2.604,-3.805c1.201,-1.001 2.603,-2.003 4.205,-2.603c1.603,-0.601 3.405,-1.002 5.608,-1.002c2.003,0 4.006,0.401 5.608,1.002c1.602,0.6 3.004,1.602 4.206,2.603c1.201,1.001 2.002,2.403 2.603,3.805c0.601,1.402 1.001,3.004 1.001,4.607c0,1.602 -0.4,3.204 -1.001,4.806c-0.601,1.402 -1.602,2.804 -2.603,3.805c-1.202,1.202 -2.604,2.003 -4.206,2.604c-3.405,1.202 -8.011,1.202 -11.216,-0.2Z" style="fill:#333;fill-rule:nonzero;"/><path d="M443.208,81.173l-0,-51.871c-0,-0.801 -0.401,-1.201 -1.202,-1.001l-7.21,2.203c-0.6,0.2 -1.001,0.601 -1.001,1.201l0,16.223c-1.602,-1.202 -3.204,-2.404 -5.007,-3.205c-2.603,-1.201 -5.407,-1.802 -8.612,-1.802c-3.204,-0 -6.008,0.601 -8.611,1.602c-2.604,1.001 -5.007,2.403 -7.01,4.206c-2.003,1.802 -3.405,4.005 -4.606,6.409c-1.002,2.403 -1.603,5.007 -1.603,7.81c0,2.804 0.601,5.408 1.603,7.811c1.001,2.403 2.603,4.606 4.606,6.409c2.003,1.802 4.206,3.204 7.01,4.206c2.603,1.001 5.607,1.602 8.812,1.602c3.004,-0 6.008,-0.601 8.411,-1.602c1.803,-0.801 3.605,-1.803 5.007,-3.004l0,2.803c0,0.601 0.401,1.002 1.001,1.002l7.411,-0c0.6,-0 1.001,-0.401 1.001,-1.002Zm-9.813,-13.418c-0.601,1.402 -1.603,2.804 -2.604,3.805c-1.202,1.202 -2.604,2.003 -4.206,2.604c-3.204,1.402 -7.811,1.402 -11.215,-0c-1.602,-0.601 -3.004,-1.602 -4.206,-2.604c-1.202,-1.201 -2.003,-2.403 -2.604,-3.805c-0.6,-1.402 -1.001,-3.004 -1.001,-4.807c0,-1.602 0.401,-3.204 1.001,-4.606c0.601,-1.402 1.402,-2.804 2.604,-3.805c1.202,-1.002 2.604,-2.003 4.206,-2.604c1.602,-0.601 3.605,-1.001 5.607,-1.001c2.003,-0 4.006,0.4 5.608,1.001c1.602,0.601 3.004,1.602 4.206,2.604c1.202,1.001 2.003,2.403 2.604,3.805c0.6,1.402 1.001,3.004 1.001,4.606c-0,1.803 -0.401,3.205 -1.001,4.807Z" style="fill:#333;fill-rule:nonzero;"/><g><path d="M454.624,48.929c-1.603,0 -3.004,-0.2 -4.406,-0.801c-0.201,0 -0.401,0 -0.401,0.2l0,32.845c0,0.601 0.401,1.002 1.001,1.002l7.411,-0c0.6,-0 1.001,-0.401 1.001,-1.002l-0,-32.644c-0,-0.201 -0.2,-0.401 -0.401,-0.201c-1.402,0.401 -2.803,0.601 -4.205,0.601Z" style="fill:#333;fill-rule:nonzero;"/><path d="M454.624,28.301c-1.603,-0 -3.205,0.601 -4.406,1.802c-1.202,1.202 -1.803,2.804 -1.803,4.406c0,1.603 0.601,3.205 1.803,4.406c1.201,1.202 2.803,1.803 4.406,1.803c1.602,-0 3.204,-0.601 4.406,-1.803c1.201,-1.201 1.802,-2.803 1.802,-4.406c0,-1.602 -0.601,-3.204 -1.802,-4.406c-1.202,-1.201 -2.804,-1.802 -4.406,-1.802Z" style="fill:#333;fill-rule:nonzero;"/></g></g><g><path d="M90.925,46.526c-0.801,-6.209 -3.605,-12.217 -8.212,-16.623c-4.606,-4.606 -10.414,-7.41 -16.622,-8.211c-5.007,-3.805 -11.216,-6.008 -17.625,-6.008c-6.408,-0 -12.617,2.002 -17.624,6.008c-6.208,0.801 -12.216,3.605 -16.622,8.211c-4.607,4.606 -7.411,10.414 -8.212,16.623c-3.805,5.007 -6.008,11.215 -6.008,17.624c0,6.409 2.003,12.617 6.008,17.624c0.801,6.209 3.605,12.217 8.212,16.623c4.606,4.606 10.414,7.41 16.622,8.211c5.007,3.805 11.216,6.008 17.624,6.008c6.409,0 12.618,-2.002 17.625,-6.008c6.208,-0.801 12.216,-3.605 16.622,-8.211c4.607,-4.606 7.411,-10.414 8.212,-16.623c3.805,-5.007 6.008,-11.215 6.008,-17.624c-0,-6.409 -2.203,-12.617 -6.008,-17.624Zm-27.238,-19.827c3.205,0.2 6.409,1.201 9.213,2.603c4.406,2.203 7.811,5.808 10.014,10.014c-2.203,-1.402 -4.607,-2.403 -7.01,-3.204c-2.003,-0.601 -4.005,-1.002 -6.208,-1.202l-2.203,-0c-2.804,-0 -5.408,0.4 -8.011,1.001c-1.803,0.401 -3.405,1.202 -5.007,2.003c-1.202,0.601 -2.604,1.402 -3.605,2.203c-0.401,0.401 -1.002,0.801 -1.402,1.001c-0.401,0.401 -0.801,0.802 -1.402,1.202l-9.814,9.814l0,1.802l0,-5.207c0,-0.601 0,-1.202 0.201,-1.803c-0,-0.6 0.2,-1.201 0.4,-1.802c0.201,-0.801 0.401,-1.602 0.601,-2.203c0.601,-1.803 1.402,-3.405 2.203,-4.807c1.002,-1.602 2.203,-3.204 3.605,-4.606c1.001,-1.001 1.803,-1.803 3.004,-2.403c1.602,-1.202 3.205,-2.003 5.207,-2.804c2.604,-1.002 5.608,-1.602 8.612,-1.602l1.602,-0Zm-15.421,15.821c-0.4,0.401 -0.601,0.601 -1.001,1.002l1.001,-1.002Zm-23.432,-1.802c0.401,-2.003 0.801,-3.805 1.602,-5.608c1.202,-2.603 2.804,-5.207 5.007,-7.21c0.401,-0.4 0.801,-0.801 1.202,-1.201c2.403,-2.203 5.407,-3.806 8.411,-4.607c4.607,-1.402 9.614,-1.402 14.22,0c-2.403,0.601 -4.807,1.402 -7.21,2.804c-1.001,0.401 -1.803,1.002 -2.604,1.602c-0.4,0.201 -0.801,0.601 -1.201,1.002c-0.401,0.4 -0.801,0.601 -1.202,1.001c-0.601,0.401 -1.001,1.001 -1.602,1.602c-2.003,2.003 -3.605,4.006 -4.807,6.409c-0.801,1.602 -1.602,3.204 -2.203,5.007c-0.4,1.402 -0.801,2.804 -1.001,4.206c-0.2,0.601 -0.2,1.201 -0.2,1.802c-0,0.601 -0.201,1.202 -0.201,1.803l0,14.019l-1.402,-1.402c-0.4,-0.401 -0.6,-0.801 -1.001,-1.001c-0.401,-0.401 -0.801,-0.801 -1.202,-1.402c-0.4,-0.401 -0.801,-1.002 -1.001,-1.402c-0.401,-0.601 -0.801,-1.402 -1.202,-2.003c-0.801,-1.602 -1.402,-3.405 -1.802,-5.007c-0.401,-1.802 -0.601,-3.805 -0.601,-5.808c-0.2,-2.003 -0.2,-3.204 0,-4.606Zm8.211,8.211l0,1.402l0,-1.402Zm-22.23,30.642c-2.203,-2.403 -3.805,-5.407 -4.606,-8.411c-1.402,-4.607 -1.402,-9.614 -0,-14.22c0.6,2.403 1.401,4.807 2.803,7.21c0.201,0.2 0.201,0.401 0.401,0.601c0.4,0.601 0.801,1.402 1.202,2.003c0.4,0.6 1.001,1.201 1.401,1.802c0.201,0.2 0.401,0.401 0.601,0.601c0.401,0.601 1.002,1.001 1.603,1.602c2.002,2.003 4.005,3.605 6.408,4.807c1.602,0.801 3.205,1.602 5.007,2.203c1.402,0.4 2.804,0.801 4.206,1.001c0.601,0.2 1.202,0.2 1.802,0.2c0.601,0 1.202,0.201 1.803,0.201l14.019,-0l-1.402,1.402c-0.4,0.4 -0.801,0.6 -1.001,1.001c-0.401,0.4 -1.002,0.801 -1.402,1.202c-0.401,0.4 -1.001,0.801 -1.402,1.001c-0.601,0.4 -1.402,0.801 -2.003,1.202c-1.602,0.801 -3.404,1.401 -5.007,1.802c-1.802,0.401 -3.805,0.601 -5.808,0.601c-1.201,-0 -2.603,-0.2 -3.805,-0.401l-1.201,0c-0.401,0 -0.601,-0.2 -1.002,-0.2c-0.4,-0.2 -1.001,-0.2 -1.402,-0.401c-0.4,-0.2 -0.601,-0.2 -1.001,-0.4c-0.2,-0 -0.401,-0.2 -0.601,-0.2c-0.2,-0 -0.401,-0.201 -0.601,-0.201c-2.603,-1.201 -5.207,-2.803 -7.21,-5.006c-1.001,-0 -1.402,-0.401 -1.802,-1.002Zm60.883,8.011l0,0.801c-0.2,0.801 -0.4,1.402 -0.6,2.003c-0,0.2 -0.201,0.401 -0.201,0.601c0,0.2 0,0.2 -0.2,0.4l-0,0.201c-0.2,0.4 -0.401,1.001 -0.601,1.402c-1.201,2.603 -2.804,5.207 -5.007,7.209c-0.4,0.401 -0.801,0.802 -1.201,1.202c-2.404,2.203 -5.408,3.805 -8.412,4.606c-4.606,1.402 -9.613,1.402 -14.219,0c2.403,-0.6 4.806,-1.402 7.209,-2.803c1.803,-1.002 3.605,-2.203 5.208,-3.605c0.6,-0.401 1.001,-1.002 1.602,-1.603c2.003,-2.002 3.605,-4.005 4.806,-6.408c0.802,-1.603 1.603,-3.205 2.203,-5.007c0.401,-1.402 0.802,-2.804 1.002,-4.206c0.2,-0.601 0.2,-1.202 0.2,-1.802c0,-0.601 0.2,-1.202 0.2,-1.803l0,-14.019l-5.207,-5.207c0.401,1.201 0.801,2.403 0.801,3.805c0,1.602 -0.4,3.004 -1.001,4.406l-0,10.815c-0,0.601 -0,1.201 -0.2,1.802c-0,0.601 -0.201,1.202 -0.401,1.803c-0.2,0.801 -0.4,1.602 -0.601,2.203c-0.601,1.802 -1.402,3.404 -2.203,5.007c-1.001,1.602 -2.203,3.204 -3.605,4.606c-1.001,1.001 -1.802,1.802 -3.004,2.403c-0.2,0.201 -0.4,0.201 -0.601,0.401c-0.2,0.2 -0.6,0.4 -0.801,0.4c-0.2,0.201 -0.4,0.201 -0.801,0.401l-0.2,-0c-0.2,0.2 -0.401,0.2 -0.801,0.4c-0.2,0.201 -0.601,0.201 -0.801,0.401l-1.402,0.601c0.4,-0.2 0.801,-0.401 1.402,-0.601c-0.401,0.2 -0.801,0.401 -1.402,0.601c-2.604,1.001 -5.608,1.602 -8.612,1.602l-1.802,-0c-3.405,-0.2 -6.409,-1.202 -9.213,-2.604c-4.406,-2.203 -7.811,-5.808 -10.014,-10.013c2.203,1.402 4.606,2.403 7.01,3.204c0.2,0 0.4,0.2 0.801,0.2c0.4,0.201 1.001,0.201 1.402,0.401l0.2,-0c0.2,-0 0.401,-0 0.601,0.2c0.2,0 0.4,0 0.601,0.2l0.2,0c0.401,0 0.801,0.201 1.402,0.201l3.204,-0c2.804,-0 5.408,-0.401 8.011,-1.002c1.803,-0.4 3.405,-1.201 5.007,-2.002c1.202,-0.601 2.604,-1.402 3.605,-2.203c0.401,-0.401 1.001,-0.802 1.402,-1.002c0.401,-0.4 1.001,-0.801 1.402,-1.201c0.4,-0.401 9.813,-9.814 9.813,-9.814l0,-7.21c-1.802,3.805 -5.407,6.409 -9.813,6.409c-1.602,0 -3.004,-0.401 -4.406,-1.001l-10.815,-0c-0.601,-0 -1.202,-0 -1.802,-0.201c-0.601,0 -1.202,-0.2 -1.803,-0.4c-0.801,-0.2 -1.602,-0.401 -2.203,-0.601c-1.802,-0.601 -3.405,-1.402 -5.007,-2.203c-1.602,-1.001 -3.204,-2.203 -4.606,-3.605c-1.001,-1.001 -1.803,-1.802 -2.403,-3.004c-0.201,-0.2 -0.401,-0.401 -0.601,-0.801c-0.2,-0.2 -0.401,-0.401 -0.401,-0.801c0,-0.201 -0.2,-0.401 -0.2,-0.401c-0.2,-0.4 -0.401,-0.601 -0.601,-1.001c-0.2,-0.401 -0.4,-0.801 -0.601,-1.402c0,-0.2 -0.2,-0.401 -0.2,-0.601c-1.001,-2.604 -1.602,-5.608 -1.602,-8.612l-0,-1.802c0.2,-3.205 1.201,-6.409 2.603,-9.213c2.203,-4.406 5.808,-7.811 10.014,-10.014c-1.402,2.203 -2.403,4.607 -3.204,7.01c-0.601,2.003 -1.002,4.005 -1.202,6.209l0,2.203c0,2.803 0.401,5.407 1.001,8.011c0.401,1.802 1.202,3.404 2.003,5.006c0.601,1.202 1.402,2.604 2.203,3.605c0.401,0.401 0.801,1.002 1.002,1.402c0.4,0.401 0.801,1.002 1.201,1.402l9.814,9.814l7.21,-0c-3.806,-1.803 -6.409,-5.408 -6.409,-9.814c-0,-6.008 4.806,-10.815 10.815,-10.815c4.606,0 8.611,3.004 10.214,7.01l6.609,6.609c0.4,0.401 0.601,0.801 1.001,1.001c0.401,0.401 0.801,1.002 1.202,1.402c0.4,0.401 0.801,1.002 1.001,1.402c0.401,0.601 0.801,1.402 1.202,2.003c0.801,1.602 1.402,3.405 1.802,5.007c0.401,1.802 0.601,3.805 0.601,5.808c0.401,2.003 0.401,3.204 0.2,4.606Zm14.02,-8.011c-0.201,3.405 -1.202,6.409 -2.604,9.213c-2.203,4.406 -5.808,7.811 -10.014,10.014c1.402,-2.203 2.404,-4.607 3.205,-7.01c-0,-0.2 0.2,-0.601 0.2,-0.801c-0,-0.2 0.2,-0.601 0.2,-0.801c0,-0.201 0.2,-0.601 0.2,-0.801l0,-0.401c0,-0.2 0,-0.4 0.201,-0.601l-0,-0.2c-0,-0.401 0.2,-0.801 0.2,-1.202l0,-3.004c0,-2.804 -0.401,-5.407 -1.001,-8.011c-0.401,-1.802 -1.202,-3.404 -2.003,-5.007c-0.601,-1.201 -1.402,-2.603 -2.203,-3.605c-0.401,-0.4 -0.801,-1.001 -1.001,-1.402c-0.401,-0.4 -0.802,-0.801 -1.202,-1.401c-0.401,-0.401 -0.601,-0.601 -1.001,-1.002l1.001,1.002l-9.814,-9.814l-1.802,0l5.207,0c0.601,0 1.202,0 1.803,0.2c0.6,0 1.201,0.201 1.802,0.401c0.801,0.2 1.602,0.4 2.203,0.601c1.803,0.601 3.405,1.402 5.007,2.203c1.602,1.001 3.204,2.203 4.606,3.605c1.002,1.001 1.803,1.802 2.404,3.004c0.2,0.2 0.2,0.4 0.4,0.601c0.2,0.2 0.401,0.6 0.401,0.801c0.2,0.2 0.4,0.601 0.4,0.801c0.2,0.2 0.2,0.601 0.401,0.801c0.2,0.2 0.2,0.601 0.4,0.801c0.201,0.401 0.401,0.801 0.601,1.402c1.001,2.604 1.602,5.608 1.602,8.612c0.201,-0 0.201,0.601 0.201,1.001Zm4.606,-8.211c-0.601,-2.403 -1.402,-4.807 -2.804,-7.21c-0.4,-0.601 -0.801,-1.402 -1.202,-2.003c-0.2,-0.4 -0.6,-0.801 -0.801,-1.201c-0.2,-0.401 -0.4,-0.601 -0.801,-1.002c-0.2,-0.2 -0.2,-0.4 -0.4,-0.4c-0.201,-0.201 -0.201,-0.401 -0.401,-0.401c-0.4,-0.601 -1.001,-1.001 -1.602,-1.602c-2.003,-2.003 -4.006,-3.605 -6.409,-4.807c-1.602,-0.801 -3.204,-1.602 -5.007,-2.203c-1.402,-0.4 -2.804,-0.801 -4.206,-1.001c-0.6,-0.2 -1.201,-0.2 -1.802,-0.2c-0.601,-0 -1.202,-0.201 -1.802,-0.201l-1.402,0l1.402,0l-14.02,0l1.402,-1.402c0.401,-0.4 0.801,-0.6 1.002,-1.001c0.4,-0.4 1.001,-0.801 1.402,-1.202c0.4,-0.4 1.001,-0.801 1.401,-1.001c0.601,-0.4 1.402,-0.801 2.003,-1.202c1.602,-0.801 3.405,-1.401 5.007,-1.802c1.803,-0.401 3.805,-0.601 5.808,-0.601c1.202,0 2.604,0.2 3.805,0.401c1.002,0.2 2.203,0.4 3.205,0.801c0.4,0.2 0.6,0.2 1.001,0.4c0.401,0.201 1.001,0.401 1.402,0.601c2.604,1.202 5.207,2.804 7.21,5.007c0.4,0.401 0.801,0.801 1.201,1.202c2.204,2.403 3.806,5.407 4.607,8.411c2.403,3.805 2.403,8.812 0.801,13.619Z" style="fill:#333;fill-rule:nonzero;"/><path d="M48.266,57.941c-1.602,0 -3.204,0.601 -4.406,1.803c-1.201,1.202 -1.802,2.804 -1.802,4.406c-0,1.602 0.601,3.204 1.802,4.406c1.202,1.202 2.804,1.803 4.406,1.803c1.602,-0 3.205,-0.601 4.406,-1.803c1.202,-1.202 1.803,-2.804 1.803,-4.406c-0,-1.602 -0.601,-3.204 -1.803,-4.406c-1.201,-1.202 -2.804,-1.803 -4.406,-1.803Z" style="fill:#333;fill-rule:nonzero;"/></g></g></svg>